<svg width="32" height="20" viewBox="0 0 32 20" fill="none" xmlns="http://www.w3.org/2000/svg">
<path d="M28.5089 6.15595L27.0041 5.36252L23.4473 1.31327C22.7086 0.492473 21.669 0 20.5746 0H10.9166C9.82217 0 8.80985 0.465118 8.07114 1.25855L4.37757 5.36252L2.84542 6.18331C1.0944 7.08618 0 8.89192 0 10.8892V13.5705C0 16.8263 2.62654 19.4528 5.88235 19.4528H5.93708V14.6922C5.93708 12.093 8.04378 9.98632 10.643 9.98632H12.6129C12.9412 9.98632 13.1874 10.2326 13.1874 10.5609V19.4254C13.1874 19.7538 13.4337 20 13.762 20H17.5923C17.8933 20 18.1669 19.7538 18.1669 19.4254V10.5609C18.1669 10.2326 18.4131 9.98632 18.7415 9.98632H20.7114C23.3105 9.98632 25.4172 12.093 25.4172 14.6922V19.3981H25.472C28.7278 19.3981 31.3543 16.7715 31.3543 13.5157V10.8345C31.327 8.86457 30.2599 7.05882 28.5089 6.15595ZM24.0766 4.92476H7.25034C7.08618 4.92476 7.0041 4.73324 7.11354 4.59644L9.2476 2.1067C9.43912 1.88782 9.68537 1.77839 9.95897 1.77839H21.368C21.6416 1.77839 21.9152 1.88782 22.0793 2.1067L24.2134 4.59644C24.3228 4.73324 24.2408 4.92476 24.0766 4.92476Z" fill="#175ADC"/>
<path d="M28.2627 3.39258C28.6731 3.39258 29.0288 3.74825 29.0288 4.15865C29.0288 4.56905 28.6731 4.92473 28.2627 4.92473C27.8523 4.92473 26.5664 4.95209 26.5664 4.54169C26.5664 4.1313 27.8523 3.39258 28.2627 3.39258Z" fill="#175ADC"/>
<path d="M3.11911 3.39258C2.70871 3.39258 2.35303 3.74825 2.35303 4.15865C2.35303 4.56905 2.70871 4.92473 3.11911 4.92473C3.5295 4.92473 4.81542 4.95209 4.81542 4.54169C4.81542 4.1313 3.55686 3.39258 3.11911 3.39258Z" fill="#175ADC"/>
</svg>
