<svg width="165" height="20" viewBox="0 0 165 20" fill="none" xmlns="http://www.w3.org/2000/svg">
<g clip-path="url(#clip0_8838_155546)">
<path d="M58.2487 10.3151V18.2221H55.1844V10.6708C55.1844 8.1537 54.2269 7.14138 52.3937 7.14138C50.4238 7.14138 49.1926 8.26313 49.1926 10.9991V18.2221H46.1284V10.6708C46.1284 8.1537 45.1708 7.14138 43.3377 7.14138C41.3678 7.14138 40.1366 8.26313 40.1366 10.9991V18.2221H37.0723V4.43276H40.1366V5.74603C41.0121 4.8158 42.2706 4.18652 43.9943 4.18652C45.6359 4.18652 47.3048 4.78844 48.2898 6.45739C49.2474 5.19884 50.7522 4.18652 53.0504 4.18652C55.6769 4.21388 58.2487 5.71867 58.2487 10.3151Z" fill="#061737"/>
<path d="M74.4457 11.4095C74.4457 11.6284 74.4184 12.0388 74.391 12.3671H63.4471C63.8575 14.3643 65.3896 15.8144 67.6879 15.8144C69.2474 15.8144 70.6154 15.1851 71.4088 14.1455L73.5155 15.7871C72.339 17.4013 70.4786 18.6051 67.7699 18.6051C63.0641 18.6051 60.4102 15.1578 60.4102 11.3548C60.4102 7.57912 63.3377 4.21387 67.3869 4.21387C71.7097 4.21387 74.4457 7.33288 74.4457 11.4095ZM71.3267 10.0962C71.0258 8.2084 69.7125 7.03192 67.469 7.03192C65.5264 7.03192 63.9669 8.18104 63.5018 10.0962H71.3267Z" fill="#061737"/>
<path d="M84.9248 4.21388V7.16874H84.5964C81.4227 7.16874 79.7538 8.20841 79.7538 10.8623V18.2494H76.6621V4.46012H79.7264V6.01963C80.5746 4.89788 82.1614 4.18652 84.2681 4.18652H84.9248V4.21388Z" fill="#061737"/>
<path d="M84.9517 11.4095C84.9517 7.44232 88.1801 4.21387 92.2294 4.21387C96.306 4.21387 99.5344 7.44232 99.5344 11.4095C99.5344 15.3493 96.306 18.6051 92.2294 18.6051C88.1801 18.5778 84.9517 15.3493 84.9517 11.4095ZM96.4154 11.4095C96.4154 9.11126 94.637 7.16872 92.2294 7.16872C89.8491 7.16872 88.0707 9.11126 88.0707 11.4095C88.0707 13.7077 89.8491 15.6776 92.2294 15.6776C94.637 15.6503 96.4154 13.6803 96.4154 11.4095Z" fill="#061737"/>
<path d="M123.064 10.3151V18.2221H120V10.6708C120 8.1537 119.042 7.14138 117.209 7.14138C115.239 7.14138 114.008 8.26313 114.008 10.9991V18.2221H110.944V10.6708C110.944 8.1537 109.986 7.14138 108.153 7.14138C106.183 7.14138 104.952 8.26313 104.952 10.9991V18.2221H101.888V4.43276H104.952V5.74603C105.828 4.8158 107.086 4.18652 108.81 4.18652C110.451 4.18652 112.12 4.78844 113.105 6.45739C114.063 5.19884 115.568 4.18652 117.866 4.18652C120.492 4.21388 123.064 5.71867 123.064 10.3151Z" fill="#061737"/>
<path d="M125.226 11.4095C125.226 7.44232 128.454 4.21387 132.503 4.21387C136.58 4.21387 139.808 7.44232 139.808 11.4095C139.808 15.3493 136.58 18.6051 132.503 18.6051C128.427 18.5778 125.226 15.3493 125.226 11.4095ZM136.662 11.4095C136.662 9.11126 134.884 7.16872 132.476 7.16872C130.096 7.16872 128.317 9.11126 128.317 11.4095C128.317 13.7077 130.096 15.6776 132.476 15.6776C134.911 15.6503 136.662 13.6803 136.662 11.4095Z" fill="#061737"/>
<path d="M145.827 7.4148V13.6802C145.827 14.8567 146.21 15.6775 147.578 15.6775C148.454 15.6775 149.22 15.568 149.329 15.5133V18.2766C149.247 18.304 148.29 18.605 146.757 18.605C144.158 18.605 142.79 17.0181 142.79 14.3095V7.44216H140.602V4.4873H142.79H145.855H149.685V7.44216H145.827V7.4148Z" fill="#061737"/>
<path d="M150.342 11.4095C150.342 7.44232 153.57 4.21387 157.619 4.21387C161.696 4.21387 164.925 7.44232 164.925 11.4095C164.925 15.3493 161.696 18.6051 157.619 18.6051C153.543 18.5778 150.342 15.3493 150.342 11.4095ZM161.778 11.4095C161.778 9.11126 160 7.16872 157.592 7.16872C155.212 7.16872 153.433 9.11126 153.433 11.4095C153.433 13.7077 155.212 15.6776 157.592 15.6776C160.027 15.6503 161.778 13.6803 161.778 11.4095Z" fill="#061737"/>
<path d="M28.5089 6.15595L27.0041 5.36252L23.4473 1.31327C22.7086 0.492473 21.669 0 20.5746 0H10.9166C9.82217 0 8.80985 0.465118 8.07114 1.25855L4.37757 5.36252L2.84542 6.18331C1.0944 7.08618 0 8.89192 0 10.8892V13.5705C0 16.8263 2.62654 19.4528 5.88235 19.4528H5.93708V14.6922C5.93708 12.093 8.04378 9.98632 10.643 9.98632H12.6129C12.9412 9.98632 13.1874 10.2326 13.1874 10.5609V19.4254C13.1874 19.7538 13.4337 20 13.762 20H17.5923C17.8933 20 18.1669 19.7538 18.1669 19.4254V10.5609C18.1669 10.2326 18.4131 9.98632 18.7415 9.98632H20.7114C23.3105 9.98632 25.4172 12.093 25.4172 14.6922V19.3981H25.472C28.7278 19.3981 31.3543 16.7715 31.3543 13.5157V10.8345C31.327 8.86457 30.2599 7.05882 28.5089 6.15595ZM24.0766 4.92476H7.25034C7.08618 4.92476 7.0041 4.73324 7.11354 4.59644L9.2476 2.1067C9.43912 1.88782 9.68537 1.77839 9.95897 1.77839H21.368C21.6416 1.77839 21.9152 1.88782 22.0793 2.1067L24.2134 4.59644C24.3228 4.73324 24.2408 4.92476 24.0766 4.92476Z" fill="#175ADC"/>
<path d="M28.2627 3.39258C28.6731 3.39258 29.0288 3.74825 29.0288 4.15865C29.0288 4.56905 28.6731 4.92473 28.2627 4.92473C27.8523 4.92473 26.5664 4.95209 26.5664 4.54169C26.5664 4.1313 27.8523 3.39258 28.2627 3.39258Z" fill="#175ADC"/>
<path d="M3.11911 3.39258C2.70871 3.39258 2.35303 3.74825 2.35303 4.15865C2.35303 4.56905 2.70871 4.92473 3.11911 4.92473C3.5295 4.92473 4.81542 4.95209 4.81542 4.54169C4.81542 4.1313 3.55686 3.39258 3.11911 3.39258Z" fill="#175ADC"/>
</g>
<defs>
<clipPath id="clip0_8838_155546">
<rect width="164.925" height="20" fill="white"/>
</clipPath>
</defs>
</svg>
